<svg xmlns="http://www.w3.org/2000/svg" width="540" height="960" viewBox="0 0 540 960" role="img" aria-label="Cavern fortress atmosphere overlay">
  <defs>
    <radialGradient id="magmaVignette" cx="50%" cy="52%" r="46%">
      <stop offset="0" stop-color="#f08a28" stop-opacity=".22"/>
      <stop offset=".28" stop-color="#b66f3b" stop-opacity=".1"/>
      <stop offset=".72" stop-color="#101217" stop-opacity="0"/>
      <stop offset="1" stop-color="#050505" stop-opacity=".5"/>
    </radialGradient>
    <radialGradient id="edgeDark" cx="50%" cy="48%" r="74%">
      <stop offset=".58" stop-color="#000000" stop-opacity="0"/>
      <stop offset="1" stop-color="#000000" stop-opacity=".62"/>
    </radialGradient>
    <filter id="mistBlur">
      <feGaussianBlur stdDeviation="10"/>
    </filter>
  </defs>
  <rect width="540" height="960" fill="url(#magmaVignette)"/>
  <g filter="url(#mistBlur)" opacity=".34">
    <path d="M24 206c72-42 136-32 191 0 58 33 119 31 188-8 51-29 92-27 128-2v74c-52-23-100-21-145 7-58 37-119 39-183 4-60-33-118-38-179-3z" fill="#d7eff0"/>
    <path d="M12 690c63-30 124-25 184 4 61 29 119 28 176-4 58-32 110-35 156-8v66c-56-20-106-16-151 12-58 35-119 34-184 2-61-30-121-33-181-8z" fill="#b9aa91"/>
  </g>
  <g opacity=".34">
    <path d="M73 115h394M73 845h394" stroke="#f0b85b" stroke-width="3" stroke-linecap="round"/>
    <path d="M102 132v704M438 132v704" stroke="#61d6d6" stroke-width="2" stroke-linecap="round" opacity=".42"/>
  </g>
  <rect width="540" height="960" fill="url(#edgeDark)"/>
</svg>
