<svg xmlns="http://www.w3.org/2000/svg" width="160" height="96" viewBox="0 0 160 96" fill="none">
  <filter id="glow" x="-20%" y="-30%" width="140%" height="160%">
    <feGaussianBlur stdDeviation="3" result="blur"/>
    <feMerge>
      <feMergeNode in="blur"/>
      <feMergeNode in="SourceGraphic"/>
    </feMerge>
  </filter>
  <path d="M26 51C31 31 53 24 72 32C87 38 98 25 117 34C136 43 141 63 127 76C113 89 94 80 80 84C63 89 48 81 35 73C27 68 23 61 26 51Z" fill="#052433" fill-opacity=".56"/>
  <path d="M33 50C39 36 55 33 71 39C85 44 96 34 111 40C126 46 130 61 119 71C107 81 92 73 79 77C65 82 51 75 41 69C34 64 30 57 33 50Z" fill="#0d8db5" fill-opacity=".82"/>
  <path d="M42 52C55 43 66 53 79 49C92 46 101 47 113 55C102 54 94 58 84 61C70 65 59 58 47 63C41 60 39 56 42 52Z" fill="#38cfe3" fill-opacity=".28"/>
  <path d="M48 47C58 43 64 49 73 48M85 55C96 50 104 54 112 60" stroke="#d7ffff" stroke-opacity=".36" stroke-width="2.5" stroke-linecap="round"/>
  <path d="M58 66L68 59M93 68L105 60" stroke="#d7ffff" stroke-opacity=".6" stroke-width="2.5" stroke-linecap="round" filter="url(#glow)"/>
</svg>
