<svg xmlns="http://www.w3.org/2000/svg" width="160" height="160" viewBox="0 0 160 160" fill="none">
  <filter id="oilGlow" x="-20%" y="-20%" width="140%" height="140%">
    <feGaussianBlur stdDeviation="2.4" result="blur"/>
    <feMerge>
      <feMergeNode in="blur"/>
      <feMergeNode in="SourceGraphic"/>
    </feMerge>
  </filter>
  <path d="M24 88C16 66 39 48 63 53C79 56 91 43 113 52C137 62 144 84 126 104C111 121 91 114 72 119C50 125 31 109 24 88Z" fill="#050403" fill-opacity=".72"/>
  <path d="M34 86C29 69 46 60 65 63C80 66 91 55 108 62C124 68 129 84 117 97C106 109 88 103 73 108C56 113 39 101 34 86Z" fill="#18120b" fill-opacity=".86"/>
  <path d="M43 81C57 72 70 82 83 77C98 72 108 76 117 88C103 87 95 94 82 96C67 99 57 88 43 94C38 90 38 84 43 81Z" fill="#4b3823" fill-opacity=".5"/>
  <path d="M50 76C62 73 70 78 79 77M86 88C99 81 108 85 116 93" stroke="#c8a76a" stroke-opacity=".36" stroke-width="4" stroke-linecap="round"/>
  <path d="M51 101C66 96 82 104 96 99" stroke="#7a5d35" stroke-opacity=".4" stroke-width="4" stroke-linecap="round" filter="url(#oilGlow)"/>
</svg>
