<svg xmlns="http://www.w3.org/2000/svg" width="160" height="128" viewBox="0 0 160 128" fill="none">
  <filter id="steamSoft" x="-30%" y="-30%" width="160%" height="160%">
    <feGaussianBlur stdDeviation="2.2" result="blur"/>
    <feMerge>
      <feMergeNode in="blur"/>
      <feMergeNode in="SourceGraphic"/>
    </feMerge>
  </filter>
  <ellipse cx="80" cy="102" rx="50" ry="13" fill="#394145" fill-opacity=".28"/>
  <circle cx="52" cy="68" r="22" fill="#d7eff0" fill-opacity=".44" filter="url(#steamSoft)"/>
  <circle cx="77" cy="53" r="29" fill="#f2ffff" fill-opacity=".5" filter="url(#steamSoft)"/>
  <circle cx="105" cy="69" r="24" fill="#d7eff0" fill-opacity=".42" filter="url(#steamSoft)"/>
  <circle cx="91" cy="35" r="18" fill="#ffffff" fill-opacity=".36" filter="url(#steamSoft)"/>
  <path d="M55 103C45 82 58 72 50 54M79 106C69 82 87 72 78 46M104 101C96 83 111 72 104 56" stroke="#ffffff" stroke-opacity=".62" stroke-width="4" stroke-linecap="round" stroke-linejoin="round"/>
  <path d="M42 80C58 89 67 85 78 77M87 76C100 88 113 86 124 78" stroke="#d7eff0" stroke-opacity=".5" stroke-width="3" stroke-linecap="round"/>
</svg>
